<?xml version="1.0" encoding="utf-8"?>
<svg viewBox="0 0 500 500" xmlns="http://www.w3.org/2000/svg">
  <path d="M 493.451 150.723 L 493.437 150.708 C 493.437 150.708 493.437 150.708 493.437 150.708 L 475.538 131.701 L 475.538 130.434 L 474.349 130.434 L 364.47 13.787 L 364.162 11.163 C 363.854 8.553 361.754 6.576 359.264 6.576 L 357.668 6.576 L 356.312 5.132 L 354.171 6.576 L 350.672 6.576 C 348.125 6.576 345.997 8.612 345.76 11.281 L 345.648 12.283 L 143.046 148.142 L 39.954 148.142 L 5.109 195.444 L 59.671 195.444 L 59.671 317.869 C 55.809 319.581 53.08 323.592 53.08 328.295 C 53.08 330.61 53.751 332.777 54.899 334.561 C 53.99 335.181 53.066 336.007 52.072 336.921 C 51.176 337.702 50.756 338.381 50.183 339.103 L 49.357 340.238 L 48.952 340.828 L 48.742 341.137 L 48.377 341.934 C 47.93 343.04 47.51 344.22 47.076 345.413 C 46.727 346.638 46.629 347.949 46.419 349.306 C 45.957 354.673 47.72 360.705 51.498 365.098 C 53.205 367.237 56.522 369.624 58.09 370.17 L 58.803 370.524 L 59.167 370.701 L 59.349 370.79 L 59.811 371.01 L 59.839 371.026 L 59.895 371.04 L 60.021 371.07 L 61.98 371.557 C 63.267 371.91 64.555 372.16 65.842 372.073 C 68.417 372.234 70.852 371.6 72.979 370.834 C 74.028 370.318 75.036 369.86 75.945 369.344 C 76.785 368.667 77.583 368.018 78.353 367.384 C 79.836 366.101 80.843 364.597 81.669 363.27 C 82.396 361.795 83.026 360.542 83.222 359.539 C 83.586 357.505 83.726 356.281 83.726 356.281 C 83.726 356.281 82.859 357.092 81.487 358.595 C 80.802 359.362 79.766 359.849 78.899 360.586 C 77.863 361.176 76.646 361.869 75.372 362.341 C 74.714 362.548 74.028 362.754 73.329 362.975 C 72.587 363.034 71.859 363.151 71.131 363.255 C 69.663 363.315 68.136 363.344 66.668 362.915 C 65.912 362.813 65.198 362.548 64.484 362.208 L 63.534 361.855 L 63.534 361.84 L 63.183 361.633 L 62.498 361.22 C 61.574 360.689 60.468 360.055 60.258 359.628 C 59.825 359.142 59.321 358.905 58.859 358.153 C 57.796 356.989 56.985 355.558 56.369 354.084 C 55.739 352.595 55.375 351.032 55.193 349.44 C 55.179 348.644 55.081 347.846 55.095 347.065 C 55.193 346.283 55.305 345.503 55.346 344.707 L 55.36 344.573 L 55.375 344.485 L 55.375 344.456 C 55.529 344.072 55.15 344.942 55.193 344.853 L 55.207 344.823 L 55.319 344.485 L 55.556 343.791 L 56.004 342.465 C 56.284 341.581 56.522 340.577 56.858 340.194 C 57.32 339.457 57.684 338.631 58.145 337.849 C 59.797 338.926 61.714 339.575 63.785 339.575 C 69.69 339.575 74.491 334.532 74.491 328.31 C 74.491 322.367 70.138 317.56 64.611 317.119 L 64.611 195.43 L 297.636 195.43 C 303.19 208.051 315.295 216.81 329.359 216.81 L 334.298 216.81 L 334.298 470.568 L 294.361 470.568 L 294.361 494.867 L 419.535 494.867 L 419.535 470.568 L 377.525 470.568 L 377.525 216.81 L 394.821 216.81 L 394.821 196.475 L 428.589 196.475 L 428.589 228.487 L 445.06 228.487 L 445.06 196.475 L 459.053 196.475 L 459.053 228.487 L 475.538 228.487 L 475.538 196.475 L 489.952 196.475 C 492.681 196.475 494.891 194.146 494.891 191.271 L 494.891 154.395 C 494.891 152.964 494.332 151.666 493.451 150.723 Z M 355.024 18.55 L 355.052 18.579 L 359.152 54.601 C 359.11 54.601 359.054 54.571 359.012 54.571 L 351.749 54.571 L 355.024 18.55 Z M 350.797 64.981 L 359.012 64.981 C 359.474 64.981 359.88 64.834 360.3 64.701 L 363.154 89.871 L 348.517 89.871 L 350.797 64.981 Z M 25.288 185.02 L 42.038 162.297 L 58.747 185.02 L 25.288 185.02 Z M 51.792 158.552 L 102.338 158.552 L 66.766 178.945 L 51.792 158.552 Z M 76.827 185.02 L 111.042 165.423 L 125.456 185.02 L 76.827 185.02 Z M 118.501 158.552 L 175.218 158.552 L 133.628 179.136 L 118.501 158.552 Z M 144.977 185.02 L 185.447 164.996 L 204.45 185.02 L 144.977 185.02 Z M 193.297 158.552 L 238.036 158.552 L 212.483 178.752 L 193.297 158.552 Z M 221.005 185.02 L 251.176 161.191 L 275.049 185.02 L 221.005 185.02 Z M 289.421 185.02 L 287.686 185.02 C 287.56 183.854 287.112 182.718 286.23 181.849 L 262.903 158.552 L 289.421 158.552 L 289.421 185.02 Z M 294.361 127.013 L 294.361 148.142 L 161.461 148.142 L 344.472 25.421 L 338.61 89.871 L 329.359 89.871 L 329.359 90.137 C 310.033 90.137 294.361 106.65 294.361 127.013 Z M 367.66 467.958 L 347.985 467.958 L 367.66 446.092 L 367.66 467.958 Z M 344.178 457.077 L 344.178 409.259 L 363.168 435.948 L 344.178 457.077 Z M 367.66 424.888 L 346.501 395.163 L 367.66 372.883 L 367.66 424.888 Z M 344.178 382.894 L 344.178 332.188 L 359.558 366.676 L 344.178 382.894 Z M 367.66 360.35 L 346.138 312.076 L 367.66 294.53 L 367.66 360.35 Z M 344.178 300.501 L 344.178 259.274 L 359.152 288.277 L 344.178 300.501 Z M 367.66 282.955 L 346.334 241.64 L 367.66 224.241 L 367.66 282.955 Z M 344.178 230.212 L 344.178 216.824 L 360.608 216.824 L 344.178 230.212 Z M 381.402 173.445 L 340.428 173.445 C 321.187 173.445 305.584 157.004 305.584 136.73 C 305.584 108.833 321.173 100.03 340.4 100.015 L 371.565 100.015 L 381.402 100.015 L 381.402 173.445 Z M 428.589 186.066 L 394.836 186.066 L 394.836 159.599 L 428.589 159.599 L 428.589 186.066 Z M 459.053 186.066 L 445.06 186.066 L 445.06 159.599 L 459.053 159.599 L 459.053 186.066 Z M 459.053 130.434 L 459.053 149.174 L 445.06 149.174 L 445.06 130.434 L 428.589 130.434 L 428.589 149.174 L 394.821 149.174 L 394.821 89.886 L 373.104 89.886 L 366.372 30.61 L 460.425 130.448 L 459.067 130.448 L 459.067 130.434 L 459.053 130.434 Z M 475.525 146.476 L 478.086 149.188 L 475.525 149.188 L 475.525 146.476 Z M 485.012 186.066 L 475.538 186.066 L 475.538 159.599 L 485.012 159.599 L 485.012 186.066 Z" fill="white" style=""/>
</svg>